<?xml version="1.0" encoding="utf-8"?>
<!-- Generator: Adobe Illustrator 24.3.0, SVG Export Plug-In . SVG Version: 6.00 Build 0)  -->
<svg version="1.1" id="Layer_1" xmlns="http://www.w3.org/2000/svg" xmlns:xlink="http://www.w3.org/1999/xlink" x="0px" y="0px"
	 viewBox="0 0 80 80" enable-background="new 0 0 80 80" xml:space="preserve">
<g>
	<polygon fill="#59C5EF" points="30.432,39.985 20.474,57.2 28.902,56.192 36.472,43.104 	"/>
	<polygon fill="#2BA0BF" points="36.472,43.104 28.902,56.192 28.902,56.192 32.229,64 42.511,46.223 	"/>
	<polygon fill="#59C5EF" points="39.107,49.022 47.771,64 51.098,56.192 51.098,56.192 45.419,46.373 	"/>
	<polygon fill="#2BA0BF" points="51.73,43.723 45.419,46.373 51.098,56.192 59.526,57.2 	"/>
	<path fill="#FFBD66" d="M57.38,32.571l-0.916-0.664c-0.729-0.527-0.928-1.527-0.457-2.294l0.592-0.964
		c0.613-0.998,0.072-2.303-1.067-2.574l-1.1-0.263c-0.875-0.209-1.441-1.058-1.3-1.945l0.178-1.116
		c0.092-0.578-0.111-1.117-0.482-1.488h0c-0.371-0.371-0.91-0.575-1.488-0.483l-1.117,0.178c-0.888,0.142-1.736-0.425-1.945-1.3
		l-0.262-1.1c-0.272-1.14-1.577-1.68-2.575-1.067l-0.963,0.593c-0.767,0.472-1.767,0.272-2.294-0.456l-0.664-0.916
		c-0.687-0.948-2.1-0.948-2.787,0l-0.664,0.916c-0.527,0.728-1.527,0.928-2.294,0.456l-0.964-0.592
		c-0.997-0.613-2.302-0.073-2.574,1.066l-0.263,1.1c-0.209,0.875-1.057,1.441-1.945,1.3l-1.117-0.178
		c-1.012-0.162-1.903,0.582-1.986,1.546l-0.003,0.035c-0.008,0.126-0.003,0.257,0.018,0.388l0.179,1.117
		c0.142,0.889-0.425,1.736-1.3,1.945l-1.1,0.263c-1.139,0.272-1.679,1.577-1.066,2.574l0.592,0.964
		c0.471,0.767,0.272,1.766-0.457,2.295l-0.916,0.663c-0.948,0.687-0.948,2.1,0,2.786l0.916,0.664
		c0.729,0.527,0.927,1.527,0.457,2.294l-0.592,0.964c-0.613,0.998-0.072,2.303,1.066,2.574l1.1,0.264
		c0.875,0.208,1.441,1.057,1.3,1.944l-0.179,1.116c-0.092,0.578,0.112,1.117,0.483,1.488l0,0.001l0,0.001
		c0.371,0.371,0.91,0.574,1.488,0.482l1.117-0.179c0.889-0.142,1.736,0.425,1.945,1.3l0.262,1.1c0.272,1.139,1.577,1.68,2.575,1.066
		l0.964-0.592c0.766-0.471,1.766-0.271,2.294,0.457l0.664,0.915c0.687,0.948,2.1,0.948,2.787,0l0.664-0.915
		c0.528-0.728,1.527-0.928,2.294-0.457l0.964,0.592c0.997,0.613,2.302,0.072,2.574-1.066l0.263-1.1
		c0.209-0.875,1.057-1.441,1.945-1.3l1.117,0.179c0.132,0.021,0.262,0.026,0.388,0.018l0.035-0.002
		c0.963-0.084,1.708-0.975,1.546-1.986l-0.178-1.117c-0.142-0.889,0.425-1.736,1.3-1.945l1.1-0.263
		c1.139-0.271,1.68-1.577,1.067-2.574l-0.592-0.964c-0.471-0.767-0.272-1.766,0.457-2.294l0.916-0.664
		C58.328,34.67,58.328,33.257,57.38,32.571z"/>
	<path fill="#FDDC85" d="M51.604,33.845c0-6.339-5.138-11.478-11.477-11.478c-6.338,0-11.477,5.139-11.477,11.478
		c0,6.339,5.138,11.476,11.477,11.476C46.466,45.321,51.604,40.184,51.604,33.845z"/>
	<polygon fill="#FFBD66" points="40.128,25.373 42.595,30.371 48.112,31.173 44.119,35.065 45.062,40.559 40.128,37.965 
		35.194,40.559 36.136,35.065 32.144,31.173 37.66,30.371 	"/>
</g>
</svg>
